<svg width="22" height="18" viewBox="0 0 22 18" fill="none" xmlns="http://www.w3.org/2000/svg">
<path d="M16 12L10 6M16 6L10 12" stroke="#BF616A" stroke-width="2" stroke-linecap="round"/>
<path d="M6.4 1.8C6.58629 1.55161 6.82786 1.35 7.10557 1.21115C7.38328 1.07229 7.68951 1 8 1H19C19.5304 1 20.0391 1.21071 20.4142 1.58579C20.7893 1.96086 21 2.46957 21 3V15C21 15.5304 20.7893 16.0391 20.4142 16.4142C20.0391 16.7893 19.5304 17 19 17H8C7.68951 17 7.38328 16.9277 7.10557 16.7889C6.82786 16.65 6.58629 16.4484 6.4 16.2L1.9 10.2C1.64036 9.85381 1.5 9.43274 1.5 9C1.5 8.56726 1.64036 8.14619 1.9 7.8L6.4 1.8V1.8Z" stroke="#BF616A" stroke-width="2" stroke-linecap="round" stroke-linejoin="round"/>
</svg>
